<svg width="1079" height="152" viewBox="0 0 1079 152" fill="none" xmlns="http://www.w3.org/2000/svg">
<path d="M93.8502 106.006L115.612 134.005L107.943 145.395H57.7038L50.1468 134.09L71.4024 106.006H93.8502Z" fill="white"/>
<path d="M165.278 2.60285V60.3132L135.093 105.116L115.613 80.6981H50.1739L30.7797 105.15L0.783493 60.3132V2.57727L25.8304 33.858L30.4109 39.5787L50.6628 64.8744H116.068L136.062 39.5787L140.343 34.1564L165.278 2.60285Z" fill="white"/>
<path d="M124.473 0.169495L117.139 9.80351L94.4428 39.5837H72.7927L48.9381 9.43691L41.5956 0.169495H124.473Z" fill="white"/>
<path d="M301.358 60.8854V61.332H391.114V60.8854H301.358Z" fill="white"/>
<path d="M485.828 124.981H462.582V20.5894H487.431L524.7 69.9806L538.996 91.9495H540.699L539.615 70.9398V20.5894H562.907V124.981H538.013L499.651 75.1235L486.457 55.493H484.9L485.81 74.6759L485.828 124.981Z" fill="white"/>
<path d="M671.397 41.5992H570.752V20.5894H671.397V41.5992ZM632.725 124.981H609.424V20.5894H632.725V124.981Z" fill="white"/>
<path d="M702.539 124.981H679.247V20.5894H736.703C745.299 20.5894 752.598 21.8074 758.602 24.2433C764.606 26.6792 769.158 30.2356 772.26 34.9126C775.368 39.5896 776.923 45.25 776.923 51.894C777.063 56.9618 775.943 61.985 773.663 66.5095C771.414 70.6645 768.006 74.0709 763.856 76.311C759.516 78.7469 754.08 80.2693 747.548 80.8783V82.1206C752.21 83.369 755.679 85.2386 757.956 87.7293C760.445 90.5246 762.585 93.6135 764.329 96.9279L779.399 124.971H752.392L738.105 97.8688C736.903 95.528 735.37 93.3742 733.552 91.4745C731.89 89.8497 729.829 88.6934 727.579 88.1221C724.398 87.3627 721.132 87.0219 717.863 87.1082H702.539V124.981ZM702.539 41.6266V69.5148H736.539C742.002 69.5148 746.042 68.5526 748.659 66.6282C751.275 64.7038 752.568 60.9921 752.538 55.493C752.538 50.2984 751.245 46.6872 748.659 44.6593C746.073 42.6314 742.033 41.6114 736.539 41.5992L702.539 41.6266Z" fill="white"/>
<path d="M810.55 124.981H787.248V20.5894H810.55V124.981Z" fill="white"/>
<path d="M952.497 124.981H926.401L971.91 20.5894H1005.15L1050.96 124.981H1024.25L995.667 58.1421L989.293 41.9372H987.581L981.207 58.1421L952.497 124.981ZM1024.56 101.888H951.25V80.8783H1024.56V101.888Z" fill="white"/>
<path d="M355.573 20.5944L333.391 48.9211L319.15 67.1082H272.575L258.152 48.9211L235.679 20.5944H266.119L288.337 48.9211H303.752L325.142 20.5944H355.573Z" fill="white"/>
<path d="M355.573 124.975H325.142L303.334 96.6669H287.345L266.12 124.975H235.679L257.934 96.6669L272.229 78.4798H318.832L333.21 96.6669L355.573 124.975Z" fill="white"/>
<path d="M927.647 20.5894L907.706 48.9161L894.904 67.1032H822.814V20.5894H846.107V48.9161H880.799L899.693 20.5894H927.647Z" fill="white"/>
<path d="M927.174 124.971H899.22L880.307 96.6622H846.107V124.971H822.815V78.475H895.823L908.089 96.6622L927.174 124.971Z" fill="white"/>
<path d="M388.077 62.344H450.505V83.2168H388.077V103.943H452.836V124.971H364.776V20.5894H452.836V41.6174H388.077V62.344Z" fill="white"/>
</svg>
